<?xml version="1.0" encoding="UTF-8"?>
<svg xmlns="http://www.w3.org/2000/svg" width="64" height="64" version="1.1">
  <path d="M 50.84375 6.140625 C 52.671875 7.660156 54.34375 9.300781 56 11 C 56.300781 11.292969 56.605469 11.582031 56.914062 11.882812 C 62.09375 17.28125 64.300781 25.3125 64.25 32.59375 C 64.246094 33.09375 64.246094 33.59375 64.242188 34.105469 C 64.050781 42.15625 61.035156 49.625 55.496094 55.566406 C 51.871094 58.960938 46.695312 63.035156 41.636719 63.671875 C 41.074219 63.585938 41.074219 63.585938 40.5 63.5 C 39.390625 61.835938 39.371094 61.261719 39.34375 59.316406 C 39.332031 58.792969 39.320312 58.265625 39.308594 57.726562 C 39.289062 56.621094 39.273438 55.515625 39.261719 54.414062 C 39.242188 53.621094 39.242188 53.621094 39.21875 52.816406 C 39.210938 52.097656 39.210938 52.097656 39.199219 51.363281 C 38.96875 49.777344 38.363281 48.832031 37.5 47.5 C 37.5 47.171875 37.5 46.839844 37.5 46.5 C 37.917969 46.425781 38.335938 46.351562 38.761719 46.277344 C 43.304688 45.371094 46.710938 44.152344 49.71875 40.53125 C 51.757812 36.539062 51.976562 32.402344 51.5 28 C 50.953125 26.664062 50.292969 25.507812 49.554688 24.273438 C 48.652344 22.207031 48.84375 20.207031 48.960938 17.992188 C 49 16.5625 48.835938 15.382812 48.5 14 C 47.726562 14.300781 46.957031 14.601562 46.1875 14.90625 C 45.726562 15.085938 45.269531 15.265625 44.792969 15.453125 C 43.429688 15.996094 43.429688 15.996094 41.96875 16.90625 C 40.289062 17.585938 39.175781 17.4375 37.410156 17.164062 C 35.605469 16.953125 33.8125 16.9375 32 16.9375 C 31.648438 16.9375 31.300781 16.933594 30.9375 16.933594 C 29.101562 16.945312 27.367188 17.070312 25.5625 17.40625 C 23.230469 17.734375 21.652344 16.761719 19.652344 15.640625 C 18.316406 14.898438 16.964844 14.425781 15.5 14 C 15.027344 15.933594 15.019531 17.613281 15.125 19.59375 C 15.15625 21.957031 14.960938 23.40625 13.75 25.4375 C 11.664062 29.109375 11.925781 33.199219 12.925781 37.210938 C 14.175781 40.628906 15.730469 42.835938 19 44.5 C 21.433594 45.539062 23.871094 46.164062 26.5 46.5 C 26.355469 46.769531 26.210938 47.035156 26.0625 47.3125 C 25.4375 48.527344 25.4375 48.527344 25.125 50.0625 C 24.5 51.5 24.5 51.5 23.1875 52.21875 C 20.488281 52.667969 18.425781 52.597656 16.09375 51.09375 C 15.105469 50.105469 14.25 49.179688 13.5 48 C 13.5 47.671875 13.5 47.339844 13.5 47 C 12.015625 46.503906 10.53125 46.011719 9 45.5 C 9.375 45.84375 9.746094 46.1875 10.128906 46.542969 C 11.546875 48.050781 12.417969 49.5 13.40625 51.3125 C 14.9375 53.980469 14.9375 53.980469 17.4375 55.65625 C 19.742188 56.214844 22.144531 56.128906 24.5 56 C 24.527344 57.0625 24.546875 58.125 24.5625 59.1875 C 24.574219 59.777344 24.585938 60.371094 24.597656 60.980469 C 24.5 62.5 24.5 62.5 23.5 63.5 C 17.789062 63.5 12.402344 59.304688 8.5 55.5 C 1.410156 47.613281 -0.585938 38.738281 -0.121094 28.417969 C 0.574219 20.175781 5.085938 13.035156 11.1875 7.671875 C 22.058594 -1.316406 39.355469 -2.609375 50.84375 6.140625 Z M 50.84375 6.140625 " fill="#8B5CF6"/>
</svg>