<?xml version="1.0" encoding="UTF-8"?>
<svg xmlns="http://www.w3.org/2000/svg" width="64" height="64" version="1.1">
  <path d="M 30.398438 8.800781 C 18.46875 8.800781 8.800781 18.46875 8.800781 30.398438 C 8.800781 42.328125 18.46875 52 30.398438 52 C 42.328125 52 52 42.328125 52 30.398438 C 52 18.46875 42.328125 8.800781 30.398438 8.800781 Z M 4 30.398438 C 4 15.820312 15.820312 4 30.398438 4 C 44.980469 4 56.800781 15.820312 56.800781 30.398438 C 56.800781 44.980469 44.980469 56.800781 30.398438 56.800781 C 15.820312 56.800781 4 44.980469 4 30.398438 Z M 4 30.398438 "/>
  <path d="M 28 16 C 28 14.675781 29.074219 13.601562 30.398438 13.601562 C 39.679688 13.601562 47.199219 21.121094 47.199219 30.398438 C 47.199219 31.726562 46.125 32.800781 44.800781 32.800781 C 43.472656 32.800781 42.398438 31.726562 42.398438 30.398438 C 42.398438 23.773438 37.027344 18.398438 30.398438 18.398438 C 29.074219 18.398438 28 17.324219 28 16 Z M 28 16 "/>
  <path d="M 46.304688 46.304688 C 47.242188 45.367188 48.757812 45.367188 49.695312 46.304688 L 59.296875 55.902344 C 60.234375 56.839844 60.234375 58.359375 59.296875 59.296875 C 58.359375 60.234375 56.839844 60.234375 55.902344 59.296875 L 46.304688 49.695312 C 45.367188 48.757812 45.367188 47.242188 46.304688 46.304688 Z M 46.304688 46.304688 "/>
</svg>