<?xml version="1.0" encoding="UTF-8"?>
<svg xmlns="http://www.w3.org/2000/svg" width="64" height="64" version="1.1">
  <path d="M 31.101562 52.898438 C 30.164062 51.960938 30.164062 50.441406 31.101562 49.503906 L 48.605469 32 L 31.101562 14.496094 C 30.164062 13.558594 30.164062 12.039062 31.101562 11.101562 C 32.039062 10.164062 33.558594 10.164062 34.496094 11.101562 L 53.695312 30.304688 C 54.632812 31.238281 54.632812 32.761719 53.695312 33.695312 L 34.496094 52.898438 C 33.558594 53.835938 32.039062 53.835938 31.101562 52.898438 Z M 31.101562 52.898438 "/>
  <path d="M 11.101562 52.898438 C 10.164062 51.960938 10.164062 50.441406 11.101562 49.503906 L 28.605469 32 L 11.101562 14.496094 C 10.164062 13.558594 10.164062 12.039062 11.101562 11.101562 C 12.039062 10.164062 13.558594 10.164062 14.496094 11.101562 L 33.695312 30.304688 C 34.632812 31.238281 34.632812 32.761719 33.695312 33.695312 L 14.496094 52.898438 C 13.558594 53.835938 12.039062 53.835938 11.101562 52.898438 Z M 11.101562 52.898438 "/>
</svg>