<?xml version="1.0" encoding="UTF-8"?>
<svg xmlns="http://www.w3.org/2000/svg" width="64" height="64" version="1.1">
  <path d="M 4 32 C 4 30.675781 5.074219 29.601562 6.398438 29.601562 L 57.601562 29.601562 C 58.925781 29.601562 60 30.675781 60 32 C 60 33.324219 58.925781 34.398438 57.601562 34.398438 L 6.398438 34.398438 C 5.074219 34.398438 4 33.324219 4 32 Z M 4 32 "/>
  <path d="M 4 16 C 4 14.675781 5.074219 13.601562 6.398438 13.601562 L 57.601562 13.601562 C 58.925781 13.601562 60 14.675781 60 16 C 60 17.324219 58.925781 18.398438 57.601562 18.398438 L 6.398438 18.398438 C 5.074219 18.398438 4 17.324219 4 16 Z M 4 16 "/>
  <path d="M 4 48 C 4 46.675781 5.074219 45.601562 6.398438 45.601562 L 32 45.601562 C 33.324219 45.601562 34.398438 46.675781 34.398438 48 C 34.398438 49.324219 33.324219 50.398438 32 50.398438 L 6.398438 50.398438 C 5.074219 50.398438 4 49.324219 4 48 Z M 4 48 "/>
  <path d="M 38.378906 41.429688 C 39.355469 40.535156 40.875 40.601562 41.769531 41.578125 L 48.800781 49.25 L 55.832031 41.578125 C 56.726562 40.601562 58.246094 40.535156 59.222656 41.429688 C 60.199219 42.328125 60.265625 43.84375 59.371094 44.820312 L 50.570312 54.421875 C 50.113281 54.917969 49.472656 55.199219 48.800781 55.199219 C 48.128906 55.199219 47.484375 54.917969 47.03125 54.421875 L 38.230469 44.820312 C 37.335938 43.84375 37.402344 42.328125 38.378906 41.429688 Z M 38.378906 41.429688 "/>
</svg>