<?xml version="1.0" encoding="UTF-8"?>
<svg xmlns="http://www.w3.org/2000/svg" width="64" height="64" version="1.1">
  <path d="M 57.304688 10.828125 C 58.011719 11.246094 58.433594 11.847656 58.6875 12.617188 C 58.875 13.378906 58.785156 13.992188 58.449219 14.6875 C 58.015625 15.363281 57.429688 15.921875 56.875 16.5 C 56.722656 16.671875 56.570312 16.84375 56.421875 17.015625 C 56.097656 17.390625 55.769531 17.757812 55.4375 18.125 C 55.101562 18.496094 54.765625 18.871094 54.4375 19.25 C 54.011719 19.738281 53.582031 20.214844 53.148438 20.695312 C 52.910156 20.960938 52.671875 21.230469 52.4375 21.5 C 51.828125 22.199219 51.207031 22.882812 50.585938 23.570312 C 50.085938 24.125 49.589844 24.679688 49.101562 25.242188 C 48.746094 25.648438 48.382812 26.046875 48.023438 26.445312 C 47.785156 26.710938 47.546875 26.980469 47.3125 27.25 C 46.886719 27.738281 46.457031 28.214844 46.023438 28.695312 C 45.785156 28.960938 45.546875 29.230469 45.3125 29.5 C 44.886719 29.988281 44.457031 30.464844 44.023438 30.945312 C 43.785156 31.210938 43.546875 31.480469 43.3125 31.75 C 42.886719 32.238281 42.457031 32.714844 42.023438 33.195312 C 41.785156 33.460938 41.550781 33.726562 41.320312 33.992188 C 40.863281 34.515625 40.394531 35.027344 39.925781 35.542969 C 39.605469 35.898438 39.289062 36.257812 38.972656 36.621094 C 38.714844 36.917969 38.449219 37.207031 38.1875 37.5 C 37.851562 37.871094 37.515625 38.246094 37.1875 38.625 C 36.761719 39.113281 36.332031 39.589844 35.898438 40.070312 C 35.660156 40.335938 35.421875 40.605469 35.1875 40.875 C 34.761719 41.363281 34.332031 41.839844 33.898438 42.320312 C 33.660156 42.585938 33.421875 42.855469 33.1875 43.125 C 32.761719 43.613281 32.332031 44.089844 31.898438 44.570312 C 31.660156 44.835938 31.425781 45.101562 31.195312 45.367188 C 30.738281 45.890625 30.269531 46.402344 29.800781 46.917969 C 29.480469 47.273438 29.164062 47.632812 28.847656 47.996094 C 28.589844 48.292969 28.324219 48.582031 28.0625 48.875 C 27.726562 49.246094 27.390625 49.621094 27.0625 50 C 26.640625 50.484375 26.207031 50.964844 25.773438 51.441406 C 25.523438 51.722656 25.28125 52.007812 25.039062 52.296875 C 24.535156 52.875 23.996094 53.324219 23.203125 53.40625 C 22.25 53.429688 21.511719 53.300781 20.765625 52.683594 C 20.316406 52.246094 19.917969 51.761719 19.511719 51.289062 C 19.1875 50.929688 18.84375 50.589844 18.5 50.25 C 18.011719 49.769531 17.550781 49.28125 17.105469 48.757812 C 16.8125 48.429688 16.5 48.121094 16.1875 47.8125 C 15.800781 47.429688 15.421875 47.046875 15.070312 46.632812 C 14.691406 46.191406 14.289062 45.78125 13.875 45.375 C 13.390625 44.894531 12.929688 44.410156 12.488281 43.890625 C 12.171875 43.539062 11.835938 43.207031 11.5 42.875 C 11.015625 42.394531 10.554688 41.910156 10.113281 41.390625 C 9.796875 41.039062 9.460938 40.707031 9.125 40.375 C 8.640625 39.894531 8.179688 39.410156 7.738281 38.890625 C 7.480469 38.605469 7.210938 38.339844 6.9375 38.070312 C 6.054688 37.210938 5.304688 36.445312 5.21875 35.15625 C 5.230469 34.449219 5.46875 33.890625 5.820312 33.289062 C 6.429688 32.710938 7.152344 32.34375 8 32.296875 C 9.632812 32.414062 10.519531 33.625 11.535156 34.765625 C 11.804688 35.0625 12.089844 35.34375 12.375 35.625 C 12.699219 35.941406 13.003906 36.265625 13.296875 36.609375 C 13.65625 37.03125 14.042969 37.421875 14.4375 37.8125 C 14.824219 38.195312 15.203125 38.578125 15.554688 38.992188 C 15.933594 39.433594 16.335938 39.84375 16.75 40.25 C 17.234375 40.730469 17.695312 41.214844 18.136719 41.734375 C 18.453125 42.085938 18.789062 42.417969 19.125 42.75 C 19.535156 43.15625 19.9375 43.558594 20.3125 44 C 20.914062 44.707031 21.589844 45.347656 22.25 46 C 22.417969 46.167969 22.582031 46.332031 22.75 46.5 C 23.433594 45.757812 24.121094 45.011719 24.78125 44.25 C 25.039062 43.953125 25.300781 43.664062 25.5625 43.375 C 25.898438 43.003906 26.234375 42.628906 26.5625 42.25 C 26.988281 41.761719 27.417969 41.285156 27.851562 40.804688 C 28.089844 40.539062 28.328125 40.269531 28.5625 40 C 28.988281 39.511719 29.417969 39.035156 29.851562 38.554688 C 30.089844 38.289062 30.328125 38.019531 30.5625 37.75 C 30.988281 37.261719 31.417969 36.785156 31.851562 36.304688 C 32.089844 36.039062 32.328125 35.769531 32.5625 35.5 C 33.171875 34.800781 33.792969 34.117188 34.414062 33.429688 C 34.914062 32.875 35.410156 32.320312 35.898438 31.757812 C 36.253906 31.351562 36.617188 30.953125 36.976562 30.554688 C 37.214844 30.289062 37.453125 30.019531 37.6875 29.75 C 38.113281 29.261719 38.542969 28.785156 38.976562 28.304688 C 39.214844 28.039062 39.453125 27.769531 39.6875 27.5 C 40.113281 27.011719 40.542969 26.535156 40.976562 26.054688 C 41.214844 25.789062 41.453125 25.519531 41.6875 25.25 C 42.113281 24.761719 42.542969 24.285156 42.976562 23.804688 C 43.214844 23.539062 43.449219 23.273438 43.679688 23.007812 C 44.136719 22.484375 44.605469 21.972656 45.074219 21.457031 C 45.394531 21.101562 45.710938 20.742188 46.027344 20.378906 C 46.285156 20.082031 46.550781 19.792969 46.8125 19.5 C 47.148438 19.128906 47.484375 18.753906 47.8125 18.375 C 48.238281 17.886719 48.667969 17.410156 49.101562 16.929688 C 49.339844 16.664062 49.578125 16.394531 49.8125 16.125 C 50.238281 15.636719 50.667969 15.160156 51.101562 14.679688 C 51.339844 14.414062 51.578125 14.144531 51.8125 13.875 C 52.234375 13.390625 52.667969 12.910156 53.101562 12.433594 C 53.273438 12.238281 53.441406 12.042969 53.605469 11.839844 C 54.550781 10.683594 55.855469 10.175781 57.304688 10.828125 Z M 57.304688 10.828125 "/>
</svg>