<?xml version="1.0" encoding="UTF-8"?>
<svg xmlns="http://www.w3.org/2000/svg" width="64" height="64" version="1.1">
  <path d="M 17.695312 14.304688 C 16.761719 13.367188 15.238281 13.367188 14.304688 14.304688 C 13.367188 15.238281 13.367188 16.761719 14.304688 17.695312 L 28.605469 32 L 14.304688 46.304688 C 13.367188 47.238281 13.367188 48.761719 14.304688 49.695312 C 15.238281 50.632812 16.761719 50.632812 17.695312 49.695312 L 32 35.394531 L 45.980469 49.375 C 46.917969 50.3125 48.4375 50.3125 49.375 49.375 C 50.3125 48.4375 50.3125 46.917969 49.375 45.980469 L 35.394531 32 L 49.375 18.019531 C 50.3125 17.082031 50.3125 15.5625 49.375 14.625 C 48.4375 13.6875 46.917969 13.6875 45.980469 14.625 L 32 28.605469 Z M 17.695312 14.304688 "/>
</svg>