<?xml version="1.0" encoding="UTF-8"?>
<svg xmlns="http://www.w3.org/2000/svg" width="64" height="64" version="1.1">
  <path d="M 10.933594 6.398438 C 8.125 6.398438 6.398438 8.898438 6.398438 11.253906 L 6.398438 39.945312 C 6.398438 42.300781 8.125 44.800781 10.933594 44.800781 L 18.398438 44.800781 L 18.398438 40 L 11.203125 40 C 11.199219 39.984375 11.199219 39.964844 11.199219 39.945312 L 11.199219 11.253906 C 11.199219 11.234375 11.199219 11.214844 11.203125 11.199219 L 38.398438 11.199219 C 38.398438 11.214844 38.398438 11.234375 38.398438 11.253906 L 38.398438 16.800781 L 43.199219 16.800781 L 43.199219 11.253906 C 43.199219 8.898438 41.472656 6.398438 38.667969 6.398438 Z M 26.933594 20.800781 C 24.320312 20.800781 22.398438 22.988281 22.398438 25.441406 L 22.398438 54.558594 C 22.398438 57.011719 24.320312 59.199219 26.933594 59.199219 L 54.667969 59.199219 C 57.277344 59.199219 59.199219 57.011719 59.199219 54.558594 L 59.199219 25.441406 C 59.199219 22.988281 57.277344 20.800781 54.667969 20.800781 Z M 27.199219 54.398438 L 27.199219 25.601562 L 54.398438 25.601562 L 54.398438 54.398438 Z M 49.597656 34.398438 C 49.597656 35.726562 48.523438 36.800781 47.199219 36.800781 L 34.398438 36.800781 C 33.074219 36.800781 32 35.726562 32 34.398438 C 32 33.074219 33.074219 32 34.398438 32 L 47.199219 32 C 48.523438 32 49.597656 33.074219 49.597656 34.398438 Z M 47.199219 48 C 48.523438 48 49.597656 46.925781 49.597656 45.601562 C 49.597656 44.273438 48.523438 43.199219 47.199219 43.199219 L 34.398438 43.199219 C 33.074219 43.199219 32 44.273438 32 45.601562 C 32 46.925781 33.074219 48 34.398438 48 Z M 47.199219 48 "/>
</svg>