<?xml version="1.0" encoding="UTF-8"?>
<svg xmlns="http://www.w3.org/2000/svg" width="64" height="64" version="1.1">
  <path d="M 37.601562 16 C 37.601562 14.675781 36.527344 13.601562 35.199219 13.601562 L 6.398438 13.601562 C 5.074219 13.601562 4 14.675781 4 16 C 4 17.324219 5.074219 18.398438 6.398438 18.398438 L 35.199219 18.398438 C 36.527344 18.398438 37.601562 17.324219 37.601562 16 Z M 37.601562 16 "/>
  <path d="M 44.703125 24.097656 C 43.765625 23.160156 43.765625 21.640625 44.703125 20.703125 C 45.640625 19.765625 47.160156 19.765625 48.097656 20.703125 L 57.695312 30.304688 C 58.632812 31.242188 58.632812 32.761719 57.695312 33.699219 L 48.097656 43.296875 C 47.160156 44.234375 45.640625 44.234375 44.703125 43.296875 C 43.765625 42.359375 43.765625 40.839844 44.703125 39.902344 L 52.605469 32 Z M 44.703125 24.097656 "/>
  <path d="M 35.199219 29.601562 C 36.527344 29.601562 37.601562 30.675781 37.601562 32 C 37.601562 33.324219 36.527344 34.398438 35.199219 34.398438 L 12.800781 34.398438 C 11.472656 34.398438 10.398438 33.324219 10.398438 32 C 10.398438 30.675781 11.472656 29.601562 12.800781 29.601562 Z M 35.199219 29.601562 "/>
  <path d="M 35.199219 45.601562 C 36.527344 45.601562 37.601562 46.675781 37.601562 48 C 37.601562 49.324219 36.527344 50.398438 35.199219 50.398438 L 6.398438 50.398438 C 5.074219 50.398438 4 49.324219 4 48 C 4 46.675781 5.074219 45.601562 6.398438 45.601562 Z M 35.199219 45.601562 "/>
</svg>