<?xml version="1.0" encoding="UTF-8"?>
<svg xmlns="http://www.w3.org/2000/svg" width="64" height="64" version="1.1">
  <path d="M 53.695312 11.101562 C 54.632812 12.039062 54.632812 13.558594 53.695312 14.496094 L 36.195312 32 L 53.695312 49.503906 C 54.632812 50.441406 54.632812 51.960938 53.695312 52.898438 C 52.761719 53.835938 51.238281 53.835938 50.304688 52.898438 L 31.101562 33.695312 C 30.164062 32.761719 30.164062 31.238281 31.101562 30.304688 L 50.304688 11.101562 C 51.238281 10.164062 52.761719 10.164062 53.695312 11.101562 Z M 53.695312 11.101562 "/>
  <path d="M 33.695312 11.101562 C 34.632812 12.039062 34.632812 13.558594 33.695312 14.496094 L 16.195312 32 L 33.695312 49.503906 C 34.632812 50.441406 34.632812 51.960938 33.695312 52.898438 C 32.761719 53.835938 31.238281 53.835938 30.304688 52.898438 L 11.101562 33.695312 C 10.164062 32.761719 10.164062 31.238281 11.101562 30.304688 L 30.304688 11.101562 C 31.238281 10.164062 32.761719 10.164062 33.695312 11.101562 Z M 33.695312 11.101562 "/>
</svg>