<svg width="40" height="40" xmlns="http://www.w3.org/2000/svg">

 <g>
  <title>Layer 1</title>
  <g>
   <path fill="white" d="m19.43928,33.06071c-0.5857,-0.5858 -0.5857,-1.5356 0,-2.1214l10.9394,-10.9393l-10.9394,-10.93934c-0.5857,-0.58578 -0.5857,-1.53553 0,-2.12132c0.5858,-0.58579 1.5356,-0.58579 2.1214,0l12,11.99996c0.5857,0.5858 0.5857,1.5356 0,2.1214l-12,12c-0.5858,0.5857 -1.5356,0.5857 -2.1214,0z" clip-rule="evenodd" fill-rule="evenodd"/>
  </g>
  <g id="svg_2">
   <path id="svg_1" fill="white" d="m6.9393,33.06071c-0.5857,-0.5858 -0.5857,-1.5356 0,-2.1214l10.9394,-10.9393l-10.9394,-10.93934c-0.5857,-0.58578 -0.5857,-1.53553 0,-2.12132c0.5858,-0.58579 1.5356,-0.58579 2.1214,0l12,11.99996c0.5857,0.5858 0.5857,1.5356 0,2.1214l-12,12c-0.5858,0.5857 -1.5356,0.5857 -2.1214,0z" clip-rule="evenodd" fill-rule="evenodd"/>
  </g>
 </g>
</svg>