<?xml version="1.0" encoding="UTF-8"?>
<svg xmlns="http://www.w3.org/2000/svg" width="64" height="64" version="1.1">
  <path d="M 8.800781 16 C 8.800781 14.675781 9.875 13.601562 11.199219 13.601562 L 52.800781 13.601562 C 54.125 13.601562 55.199219 14.675781 55.199219 16 C 55.199219 17.324219 54.125 18.398438 52.800781 18.398438 L 11.199219 18.398438 C 9.875 18.398438 8.800781 17.324219 8.800781 16 Z M 8.800781 32 C 8.800781 30.675781 9.875 29.601562 11.199219 29.601562 L 43.199219 29.601562 C 44.527344 29.601562 45.601562 30.675781 45.601562 32 C 45.601562 33.324219 44.527344 34.398438 43.199219 34.398438 L 11.199219 34.398438 C 9.875 34.398438 8.800781 33.324219 8.800781 32 Z M 11.199219 45.601562 C 9.875 45.601562 8.800781 46.675781 8.800781 48 C 8.800781 49.324219 9.875 50.398438 11.199219 50.398438 L 52.800781 50.398438 C 54.125 50.398438 55.199219 49.324219 55.199219 48 C 55.199219 46.675781 54.125 45.601562 52.800781 45.601562 Z M 11.199219 45.601562 "/>
</svg>